PathFileType	4	(X/Y/Z)	C:\Users\dbl\Desktop\20210112\20210112\bx_n_0_1802.trc
DataRate	CameraRate	NumFrames	NumMarkers	Units	OrigDataRate	OrigDataStartFrame	OrigNumFrames
50.00	50.00	       5	43	mm	50.00	160	       425
Frame#	Time	Top.Head			R.Acromium			L.Acromium			Sternum			R.ASIS			L.ASIS			V.Sacral			R.Thigh.Upper			R.Thigh.Front			R.Thigh.Rear			R.Knee.Lat			R.Knee.Med			R.Shank.Upper			R.Shank.Front			R.Shank.Rear			R.Ankle.Lat			R.Midfoot.Lat			R.Toe.Lat			R.Toe.Tip			R.Toe.Med			R.Ankle.Med			R.Midfoot.Sup			R.Heel			L.Thigh.Upper			L.Thigh.Front			L.Thigh.Rear			L.Knee.Lat			L.Knee.Med			L.Shank.Upper			L.Shank.Front			L.Shank.Rear			L.Ankle.Lat			L.Midfoot.Lat			L.Toe.Lat			L.Toe.Tip			L.Toe.Med			L.Ankle.Med			L.Midfoot.Sup			L.Heel			origin1 front left			origin2 front right			origin 3 back right			origin 4 back leftt			
		X1	Y1	Z1	X2	Y2	Z2	X3	Y3	Z3	X4	Y4	Z4	X5	Y5	Z5	X6	Y6	Z6	X7	Y7	Z7	X8	Y8	Z8	X9	Y9	Z9	X10	Y10	Z10	X11	Y11	Z11	X12	Y12	Z12	X13	Y13	Z13	X14	Y14	Z14	X15	Y15	Z15	X16	Y16	Z16	X17	Y17	Z17	X18	Y18	Z18	X19	Y19	Z19	X20	Y20	Z20	X21	Y21	Z21	X22	Y22	Z22	X23	Y23	Z23	X24	Y24	Z24	X25	Y25	Z25	X26	Y26	Z26	X27	Y27	Z27	X28	Y28	Z28	X29	Y29	Z29	X30	Y30	Z30	X31	Y31	Z31	X32	Y32	Z32	X33	Y33	Z33	X34	Y34	Z34	X35	Y35	Z35	X36	Y36	Z36	X37	Y37	Z37	X38	Y38	Z38	X39	Y39	Z39	X40	Y40	Z40	X41	Y41	Z41	X42	Y42	Z42	X43	Y43	Z43	

160	3.180	-665.76520	122.90724	1851.27026	-670.11841	-70.41422	1546.00415	-702.82227	288.77994	1534.15332	-598.31128	104.67472	1351.35999	-626.62396	-9.23901	1056.41638	-638.67291	235.38527	1068.41882	-828.82379	86.70793	1059.86133	-683.21136	-76.22775	872.85724	-597.86255	-11.76861	814.39581	-689.65057	-61.15074	757.36383	-690.18396	-33.63305	614.00586	-664.43652	76.14524	574.28522	-693.57935	-30.48324	567.19122	-642.70764	14.81707	516.50012	-740.86957	-39.17920	489.30869	-756.93677	-17.17876	208.33794	-650.22290	-68.71806	161.37111	-608.29126	-75.27322	158.39439	-552.38477	-32.20739	165.92558	-598.41089	24.31484	168.22649	-672.58276	53.83263	158.43904	-713.96191	71.36780	214.72462	-790.66687	41.90310	176.45833	-708.33203	281.40683	874.88837	-602.00006	221.43614	807.34576	-697.91901	264.54590	745.58813	-711.75079	243.88885	640.84283	-660.96057	140.11734	579.67731	-703.95465	241.14470	575.66742	-647.95490	200.96646	534.71869	-743.78784	250.77762	502.85947	-763.46472	226.59761	206.53300	-654.29755	293.13068	155.65993	-617.21918	299.90912	157.85156	-553.17981	247.78209	166.44424	-589.00403	211.53517	175.11560	-674.20490	167.40370	157.91428	-707.93054	150.74922	214.81059	-793.68152	177.29567	185.86128	-528.24841	304.15347	146.47406	-517.48541	-72.69033	143.55798	-875.98108	-78.73451	141.51265	-882.48730	296.16925	144.71646	
161	3.200	-662.80798	122.84546	1850.54041	-668.53741	-70.68809	1545.52783	-701.43768	288.43320	1533.61084	-598.55713	104.13456	1350.03625	-629.51556	-9.59003	1055.74902	-641.64136	234.93196	1067.96240	-831.66797	86.29405	1059.92346	-685.54297	-76.82427	872.61597	-599.43665	-12.45872	814.99323	-690.41339	-61.52332	757.00092	-688.95819	-34.23448	613.70074	-662.54596	75.54633	574.13934	-691.91162	-31.19862	567.15460	-641.18268	14.02692	516.12970	-739.61841	-39.54119	489.11621	-756.96075	-17.31514	208.31230	-650.34741	-68.83303	161.23454	-608.33319	-75.35875	158.37267	-552.55835	-32.31932	165.96834	-598.49023	24.14737	168.55402	-672.52106	53.65177	158.58907	-713.74475	71.04482	214.76715	-790.68591	41.78841	176.48946	-710.13971	281.29083	874.73480	-603.21448	220.97229	808.15289	-697.88226	264.54874	745.31921	-710.26984	244.01689	640.41138	-658.97668	140.29947	579.66840	-701.91998	241.35149	575.44672	-646.02625	201.14441	534.38043	-742.08801	250.89938	502.78693	-763.28052	226.65987	206.43176	-654.34851	293.20740	155.57582	-617.26007	299.94174	157.78986	-553.20837	247.87236	166.43771	-589.02808	211.74043	175.25230	-674.16998	167.50600	158.02388	-707.59033	150.83513	214.71709	-793.63959	177.31787	185.88751	-528.20667	304.14725	146.52156	-517.47778	-72.72653	143.52943	-875.98657	-78.72387	141.52325	-882.50018	296.14481	144.71445	
162	3.220	-659.75885	122.75781	1849.70581	-666.90204	-70.99847	1544.94482	-699.95758	288.04608	1532.98584	-598.74469	103.54995	1348.60840	-632.44836	-9.92846	1055.06665	-644.75781	234.54167	1067.42883	-834.60730	85.83589	1059.94910	-687.88568	-77.41211	872.29095	-601.05585	-13.01281	815.50635	-691.13965	-62.06987	756.69690	-687.77325	-34.84119	613.36627	-660.84491	74.87260	573.96826	-690.34448	-31.93417	567.04663	-639.76373	13.21813	515.78143	-738.50696	-39.99891	488.93909	-757.03357	-17.49572	208.30980	-650.48035	-68.96975	161.12361	-608.36438	-75.50371	158.30997	-552.72565	-32.40590	166.01572	-598.52856	23.99987	168.90047	-672.44427	53.39426	158.76305	-713.56091	70.76456	214.88824	-790.71582	41.65626	176.52229	-711.97565	281.19601	874.53174	-604.35992	220.51523	808.87256	-697.80298	264.54877	744.96844	-708.59454	244.24429	639.95911	-656.84430	140.54688	579.66364	-699.71912	241.64615	575.19202	-643.94775	201.41139	534.05658	-740.24567	251.09842	502.69681	-763.09802	226.74347	206.35342	-654.38232	293.24512	155.53285	-617.30579	299.97464	157.70863	-553.23804	247.93097	166.40909	-589.07141	211.96359	175.40820	-674.12994	167.57613	158.14270	-707.37506	150.94687	214.69809	-793.57874	177.35555	185.92853	-528.16248	304.14609	146.57126	-517.47070	-72.75647	143.51828	-875.98743	-78.72550	141.52257	-882.52112	296.16019	144.72993	
163	3.240	-656.62421	122.61371	1848.74622	-665.19562	-71.35263	1544.21973	-698.36267	287.61990	1532.27747	-598.87592	102.98550	1347.07910	-635.45258	-10.31151	1054.41284	-647.97876	234.19778	1066.80725	-837.61719	85.35774	1059.95520	-690.19464	-78.00143	871.88306	-602.71045	-13.42584	815.96283	-691.77325	-62.74673	756.42798	-686.63434	-35.44467	613.00494	-659.31061	74.13723	573.80249	-688.92450	-32.62016	566.72504	-638.42041	12.39542	515.43512	-737.54773	-40.53848	488.78488	-757.11365	-17.69455	208.29436	-650.59119	-69.10252	161.02858	-608.38916	-75.69879	158.20537	-552.86432	-32.46128	166.04364	-598.49286	23.86239	169.20580	-672.37573	53.09720	158.93585	-713.37299	70.54300	215.04512	-790.74561	41.52512	176.53651	-713.85016	281.08844	874.22931	-605.44965	220.08319	809.50037	-697.71283	264.61044	744.55170	-706.76392	244.56844	639.45447	-654.60382	140.86707	579.59705	-697.36530	241.99063	574.84576	-641.73840	201.73009	533.70276	-738.25580	251.37662	502.56860	-762.94409	226.83894	206.32552	-654.40753	293.25183	155.51218	-617.36029	300.03824	157.62361	-553.27246	247.97696	166.37459	-589.12177	212.18095	175.56253	-674.07526	167.62769	158.22467	-707.30115	151.09802	214.70749	-793.51849	177.40659	186.00171	-528.13947	304.16089	146.59846	-517.46393	-72.77106	143.52985	-875.98315	-78.73454	141.51195	-882.53271	296.19019	144.74928	
164	3.260	-653.40790	122.40742	1847.62817	-663.41852	-71.76030	1543.31091	-696.67493	287.14182	1531.46802	-599.02313	102.46098	1345.41064	-638.49811	-10.73351	1053.72485	-651.20227	233.85216	1066.07397	-840.63391	84.89488	1059.94458	-692.45227	-78.60667	871.43524	-604.39368	-13.75725	816.41071	-692.30688	-63.48102	756.16656	-685.54028	-36.07344	612.65820	-657.89355	73.37193	573.67767	-687.61255	-33.28815	566.26001	-637.13574	11.56062	515.07001	-736.74524	-41.16774	488.65955	-757.19250	-17.89816	208.22839	-650.67285	-69.23357	160.90413	-608.42560	-75.91153	158.07315	-552.97369	-32.50014	166.05881	-598.39972	23.71902	169.44994	-672.33228	52.82125	159.09280	-713.21844	70.36214	215.17189	-790.78339	41.40546	176.51860	-715.77344	280.92291	873.77130	-606.47162	219.72368	810.07910	-697.57544	264.81149	744.07227	-704.83264	244.97961	638.86737	-652.27576	141.24332	579.42621	-694.89581	242.39326	574.41760	-639.42542	202.09372	533.28210	-736.14905	251.73068	502.39160	-762.81012	226.93571	206.32590	-654.44141	293.25098	155.48624	-617.42102	300.13898	157.54472	-553.30121	248.03209	166.34973	-589.16687	212.36768	175.68304	-674.03607	167.67436	158.25531	-707.33203	151.29091	214.69499	-793.46814	177.43700	186.09698	-528.15118	304.19098	146.59535	-517.45966	-72.77295	143.55553	-875.97595	-78.73506	141.49930	-882.53723	296.20663	144.76541	
